# Blender v2.79 (sub 0) OBJ File: 'start_button.blend'
# www.blender.org
mtllib start_button.mtl
o Cube
v 0.648406 0.014773 -1.498604
v 0.646260 -0.012353 1.535169
v -0.662857 -0.017282 1.544167
v -0.667900 -0.017027 -1.529067
v 0.907915 0.023278 -2.171451
v 0.867394 0.024733 2.239187
v -0.928426 0.014534 2.270967
v -0.920582 0.016555 -2.233366
v 0.848922 0.039475 1.995660
v -0.900631 0.027874 2.013038
v 0.883515 0.034981 1.690056
v -0.906930 0.035643 1.700598
v 0.884010 0.034024 1.386281
v -0.938113 0.031263 1.334301
v 0.878677 0.038830 0.981101
v -0.917987 0.022929 0.972337
v 0.894062 0.042342 0.593379
v -0.911758 0.018410 0.628434
v 0.881947 0.041790 0.288615
v -0.926003 0.022351 0.266077
v 0.876873 0.037923 -0.048633
v -0.926774 0.029823 -0.097279
v 0.896731 0.028444 -0.421534
v -0.932794 0.044355 -0.433045
v 0.909029 0.024702 -0.814263
v -0.957510 0.056847 -0.879425
v 0.920220 0.021682 -1.270885
v -0.979548 0.045204 -1.333799
v 0.923236 0.034600 -1.789978
v -0.940184 0.027957 -1.798526
v -0.506452 0.027686 -1.798996
v -0.573864 0.068676 -0.862450
v -0.562381 0.033268 -0.088446
v -0.588086 0.025215 0.621929
v -0.620366 0.060679 1.340219
v -0.599791 0.065936 2.002056
v -0.482332 0.024052 -2.247456
v -0.631135 0.042477 2.263468
v -0.562952 0.051242 -1.314538
v -0.555724 0.051963 -0.421322
v -0.583725 0.026905 0.273092
v -0.585921 0.035164 0.970010
v -0.581964 0.080890 1.694871
v -0.158917 0.087279 1.356874
v -0.200842 0.090423 2.008128
v 0.032520 0.029285 -1.795330
v -0.054183 0.048907 -0.844347
v -0.158144 0.107637 1.694516
v 0.045405 0.021428 -2.224403
v -0.182177 0.057015 2.263414
v -0.046520 0.032235 -0.068767
v 0.006353 0.032547 -1.292061
v -0.067545 0.037719 0.282391
v -0.120801 0.053262 0.968404
v -0.051144 0.039060 -0.421036
v -0.106646 0.041190 0.609474
v 0.378919 0.067697 1.695900
v 0.465146 0.028768 -0.428244
v 0.468203 0.029559 -0.840646
v 0.538321 0.047485 -1.794892
v 0.533727 0.033772 -2.188914
v 0.414323 0.052077 0.595033
v 0.371173 0.041587 2.261711
v 0.369272 0.061748 1.375657
v 0.453894 0.036098 -0.052453
v 0.337025 0.061141 2.016576
v 0.519598 0.029438 -1.283333
v 0.433374 0.047698 0.289979
v 0.381806 0.051833 0.969367
vt 0.428175 0.164204
vt 0.432184 0.835169
vt 0.087722 0.838784
vt 0.081799 0.159053
vt 0.995355 0.985019
vt 0.896879 0.988387
vt 0.898725 0.901239
vt 1.000000 0.900661
vt 0.495445 0.015074
vt 0.500032 0.099449
vt 0.500032 0.214243
vt 0.497766 0.315258
vt 0.495112 0.402144
vt 0.490432 0.484664
vt 0.492266 0.559257
vt 0.495909 0.626650
vt 0.492445 0.712420
vt 0.494461 0.802022
vt 0.494783 0.869213
vt 0.486131 0.936858
vt 0.491376 0.990672
vt 0.360811 0.996303
vt 0.215184 0.997397
vt 0.097065 0.997944
vt 0.018884 0.999925
vt 0.025794 0.942865
vt 0.023659 0.873781
vt 0.014912 0.792794
vt 0.019678 0.712696
vt 0.020809 0.636615
vt 0.016513 0.556494
vt 0.015757 0.476141
vt 0.013651 0.401909
vt 0.006463 0.303232
vt 0.000000 0.202740
vt 0.009686 0.099873
vt 0.014210 0.003650
vt 0.129500 0.000000
vt 0.268407 0.004436
vt 0.396941 0.011697
vt 0.986378 0.063231
vt 0.851741 0.057928
vt 0.861082 0.003755
vt 0.991598 0.009392
vt 0.994995 0.130872
vt 0.862273 0.128911
vt 0.994649 0.198064
vt 0.859225 0.199733
vt 0.992618 0.287677
vt 0.861872 0.289616
vt 0.996065 0.373455
vt 0.869843 0.372457
vt 0.992399 0.440849
vt 0.874373 0.439956
vt 0.990531 0.515438
vt 0.879219 0.515726
vt 0.995158 0.597945
vt 0.881581 0.598862
vt 0.997774 0.684829
vt 0.881741 0.690083
vt 1.000000 0.785842
vt 0.894573 0.788067
vt 0.605212 0.059906
vt 0.609444 0.127873
vt 0.523876 0.126184
vt 0.526011 0.057085
vt 0.598755 0.206269
vt 0.607202 0.288202
vt 0.519808 0.287252
vt 0.515091 0.207163
vt 0.606073 0.365192
vt 0.606677 0.442355
vt 0.516592 0.443457
vt 0.520902 0.363328
vt 0.611737 0.522350
vt 0.612995 0.595984
vt 0.513743 0.598081
vt 0.515832 0.523824
vt 0.607555 0.693529
vt 0.609694 0.793542
vt 0.500032 0.797254
vt 0.506559 0.696781
vt 0.623768 0.900775
vt 0.629408 1.000000
vt 0.514098 0.996307
vt 0.509637 0.900100
vt 0.597340 0.002047
vt 0.519081 0.000000
vt 0.710237 0.059085
vt 0.721007 0.128506
vt 0.720245 0.203189
vt 0.729617 0.289168
vt 0.732763 0.368578
vt 0.742534 0.440977
vt 0.747509 0.518676
vt 0.745751 0.596586
vt 0.744303 0.690212
vt 0.759508 0.789322
vt 0.765601 0.900673
vt 0.768309 0.995596
vt 0.715499 0.002648
vn 0.0670 -0.9977 -0.0136
vn 0.0660 -0.9976 0.0224
vn -0.0808 -0.9964 0.0248
vn -0.0788 -0.9968 -0.0124
vn 0.7709 -0.0031 -0.6369
vn 0.1722 0.3760 -0.9105
vn 0.0035 1.0000 -0.0038
vn 0.9944 0.1036 -0.0187
vn 0.9931 0.0910 0.0741
vn 0.9973 0.0631 -0.0374
vn 0.9908 0.0766 -0.1111
vn 0.9157 0.3615 -0.1753
vn 0.9780 0.1703 -0.1201
vn 0.9980 0.0591 -0.0207
vn 0.9688 0.2476 -0.0129
vn 0.9968 0.0512 -0.0618
vn 0.9990 0.0388 -0.0207
vn 0.7900 0.5906 0.1647
vn 0.4448 -0.1155 0.8881
vn 0.2710 -0.0034 0.9626
vn 0.0239 0.0949 0.9952
vn -0.4132 0.1472 0.8986
vn -0.7298 -0.1069 0.6753
vn -0.9472 0.2826 0.1512
vn -0.9844 0.1751 0.0183
vn -0.9905 0.0505 -0.1278
vn -0.9749 0.1664 -0.1476
vn -0.9668 0.2541 -0.0269
vn -0.9935 0.0907 0.0688
vn -0.9743 0.1497 0.1682
vn -0.9622 0.1913 0.1939
vn -0.9881 0.1537 -0.0004
vn -0.9806 0.0863 -0.1762
vn -0.9656 0.2125 -0.1498
vn -0.6984 0.0012 -0.7157
vn 0.1818 0.0325 -0.9828
vn -0.0133 0.0756 -0.9970
vn 0.0497 0.9971 0.0576
vn 0.0595 0.9982 0.0002
vn 0.0473 0.9985 -0.0283
vn 0.0199 0.9996 -0.0175
vn 0.0025 0.9999 -0.0078
vn -0.0028 0.9998 -0.0175
vn -0.0008 0.9998 -0.0178
vn 0.0099 0.9999 -0.0035
vn 0.0181 0.9998 -0.0025
vn 0.0117 0.9999 0.0068
vn -0.0866 0.9943 0.0620
vn -0.0903 0.9959 -0.0002
vn -0.0725 0.9960 -0.0519
vn -0.0437 0.9979 -0.0470
vn -0.0274 0.9995 -0.0122
vn -0.0163 0.9998 0.0059
vn -0.0060 0.9996 0.0266
vn 0.0008 0.9993 0.0378
vn 0.0044 1.0000 -0.0004
vn 0.0060 0.9994 -0.0341
vn 0.0010 0.9997 -0.0246
vn -0.0049 0.9971 0.0753
vn 0.0038 1.0000 -0.0011
vn -0.0056 0.9983 -0.0584
vn -0.0154 0.9988 -0.0458
vn -0.0232 0.9996 -0.0164
vn -0.0174 0.9998 -0.0108
vn -0.0009 1.0000 0.0025
vn 0.0197 0.9996 0.0198
vn 0.0298 0.9995 -0.0020
vn 0.0148 0.9998 -0.0154
vn -0.0069 0.9999 -0.0125
usemtl Material
s 1
f 1/1/1 2/2/2 3/3/3 4/4/4
f 5/5/5 61/6/6 60/7/7 29/8/8
f 1/1/1 5/9/5 29/10/8 27/11/9 25/12/10 23/13/11 21/14/12 19/15/13 17/16/14 15/17/15 13/18/16 11/19/17 9/20/18 6/21/19 2/2/2
f 2/2/2 6/21/19 63/22/20 50/23/21 38/24/22 7/25/23 3/3/3
f 3/3/3 7/25/23 10/26/24 12/27/25 14/28/26 16/29/27 18/30/28 20/31/29 22/32/30 24/33/31 26/34/32 28/35/33 30/36/34 8/37/35 4/4/4
f 5/9/5 1/1/1 4/4/4 8/37/35 37/38/36 49/39/37 61/40/6
f 9/41/18 66/42/38 63/43/20 6/44/19
f 11/45/17 57/46/39 66/42/38 9/41/18
f 13/47/16 64/48/40 57/46/39 11/45/17
f 15/49/15 69/50/41 64/48/40 13/47/16
f 17/51/14 62/52/42 69/50/41 15/49/15
f 19/53/13 68/54/43 62/52/42 17/51/14
f 21/55/12 65/56/44 68/54/43 19/53/13
f 23/57/11 58/58/45 65/56/44 21/55/12
f 25/59/10 59/60/46 58/58/45 23/57/11
f 27/61/9 67/62/47 59/60/46 25/59/10
f 29/8/8 60/7/7 67/62/47 27/61/9
f 36/63/48 43/64/49 12/65/25 10/66/24
f 35/67/50 42/68/51 16/69/27 14/70/26
f 34/71/52 41/72/53 20/73/29 18/74/28
f 33/75/54 40/76/55 24/77/31 22/78/30
f 32/79/56 39/80/57 28/81/33 26/82/32
f 31/83/58 37/84/36 8/85/35 30/86/34
f 38/87/22 36/63/48 10/66/24 7/88/23
f 43/64/49 35/67/50 14/70/26 12/65/25
f 42/68/51 34/71/52 18/74/28 16/69/27
f 41/72/53 33/75/54 22/78/30 20/73/29
f 40/76/55 32/79/56 26/82/32 24/77/31
f 39/80/57 31/83/58 30/86/34 28/81/33
f 45/89/59 48/90/60 43/64/49 36/63/48
f 44/91/61 54/92/62 42/68/51 35/67/50
f 56/93/63 53/94/64 41/72/53 34/71/52
f 51/95/65 55/96/66 40/76/55 33/75/54
f 47/97/67 52/98/68 39/80/57 32/79/56
f 46/99/69 49/100/37 37/84/36 31/83/58
f 50/101/21 45/89/59 36/63/48 38/87/22
f 48/90/60 44/91/61 35/67/50 43/64/49
f 54/92/62 56/93/63 34/71/52 42/68/51
f 53/94/64 51/95/65 33/75/54 41/72/53
f 55/96/66 47/97/67 32/79/56 40/76/55
f 52/98/68 46/99/69 31/83/58 39/80/57
f 66/42/38 57/46/39 48/90/60 45/89/59
f 64/48/40 69/50/41 54/92/62 44/91/61
f 62/52/42 68/54/43 53/94/64 56/93/63
f 65/56/44 58/58/45 55/96/66 51/95/65
f 59/60/46 67/62/47 52/98/68 47/97/67
f 60/7/7 61/6/6 49/100/37 46/99/69
f 63/43/20 66/42/38 45/89/59 50/101/21
f 57/46/39 64/48/40 44/91/61 48/90/60
f 69/50/41 62/52/42 56/93/63 54/92/62
f 68/54/43 65/56/44 51/95/65 53/94/64
f 58/58/45 59/60/46 47/97/67 55/96/66
f 67/62/47 60/7/7 46/99/69 52/98/68
